<?xml version="1.0" standalone="no"?>
<!DOCTYPE svg PUBLIC "-//W3C//DTD SVG 1.1//EN" "http://www.w3.org/Graphics/SVG/1.1/DTD/svg11.dtd" >
<svg xmlns="http://www.w3.org/2000/svg" xmlns:xlink="http://www.w3.org/1999/xlink" version="1.1">
<metadata></metadata>
<defs>
<font id="foundrygridnikregular" horiz-adv-x="1241" >
<font-face units-per-em="2048" ascent="1638" descent="-410" />
<missing-glyph horiz-adv-x="620" />
<glyph horiz-adv-x="0" />
<glyph horiz-adv-x="682" />
<glyph unicode=" "  horiz-adv-x="620" />
<glyph unicode="&#x09;" horiz-adv-x="620" />
<glyph unicode="&#xa0;" horiz-adv-x="620" />
<glyph unicode="!" horiz-adv-x="620" d="M223 0v172h172v-172h-172zM252 389v977h117v-977h-117z" />
<glyph unicode="&#x22;" horiz-adv-x="976" d="M250 963v403h119v-403h-119zM606 963v403h119v-403h-119z" />
<glyph unicode="#" d="M66 463v90h256l84 309h-234v90h256l127 469h107l-125 -469h299l127 469h106l-127 -469h234v-90h-256l-84 -309h233v-90h-258l-123 -463h-106l125 463h-301l-123 -463h-109l125 463h-233zM430 553h299l84 309h-299z" />
<glyph unicode="$" d="M186 178l80 82l133 -133q12 -12 29 -12h139v514l-252 33q-56 8 -92.5 48t-36.5 95v321q0 60 41 101l97 96q43 43 102 43h141v195h107v-195h143q60 0 101 -41l137 -137l-80 -82l-133 133q-12 12 -29 12h-139v-516l252 -30q55 -6 92 -47t37 -97v-321q0 -60 -41 -101 l-96 -96q-43 -43 -103 -43h-141v-195h-107v195h-143q-59 0 -100 41zM301 813q0 -15 11 -27.5t26 -13.5l229 -29v508h-139q-17 0 -29 -12l-86 -86q-12 -12 -12 -29v-311zM674 115h139q17 0 29 12l86 86q12 12 12 29v311q0 15 -11 27.5t-26 13.5l-229 24v-503z" />
<glyph unicode="%" horiz-adv-x="1726" d="M201 715v520q0 35 24 59l54 54q28 28 65 28h223q38 0 66 -28l53 -54q25 -25 25 -59v-520q0 -35 -25 -60l-53 -53q-29 -29 -66 -29h-223q-36 0 -65 29l-54 53q-24 24 -24 60zM297 723q0 -6 6 -12l37 -37q4 -4 12 -4h207q8 0 12 4l37 37q6 6 6 16v500q0 6 -6 12l-37 37 q-4 4 -12 4h-207q-8 0 -12 -4l-37 -37q-6 -6 -6 -12v-504zM442 0l742 1376h100l-741 -1376h-101zM1016 141v521q0 35 24 59l54 53q29 29 65 29h223q37 0 66 -29l53 -53q25 -25 25 -59v-521q0 -34 -25 -59l-53 -53q-29 -29 -66 -29h-223q-36 0 -65 29l-54 53q-24 24 -24 59z M1112 150q0 -7 6 -13l37 -37q4 -4 12 -4h207q8 0 12 4l37 37q7 7 7 17v499q0 6 -7 13l-37 36q-5 5 -12 5h-207q-7 0 -12 -5l-37 -36q-6 -6 -6 -13v-503z" />
<glyph unicode="&#x26;" horiz-adv-x="1527" d="M229 236v327q0 60 43 103l183 182l-144 143q-41 41 -41 103q0 57 43 100l123 123q43 43 101 43q59 0 100 -41l125 -125q43 -43 43 -100q0 -60 -37 -97l-150 -147l476 -477l163 166l82 -82q-161 -166 -163 -166l208 -209l-79 -82l-209 209l-166 -166q-43 -43 -103 -43 h-362q-60 0 -103 43l-90 90q-43 43 -43 103zM350 236q0 -17 12 -29l80 -80q12 -12 29 -12h348q17 0 29 12l164 164l-475 475l-175 -174q-12 -12 -12 -29v-327zM389 1093.5q0 -16.5 12 -28.5l136 -135l133 135q12 12 12 28.5t-12 28.5l-107 107q-12 12 -28.5 12t-28.5 -12 l-105 -107q-12 -12 -12 -28.5z" />
<glyph unicode="'" horiz-adv-x="620" d="M250 963v403h119v-403h-119z" />
<glyph unicode="(" horiz-adv-x="806" d="M201 104v1049q0 59 41 100l399 400l80 -80l-363 -363q-43 -43 -43 -102v-958q0 -60 43 -103l363 -362l-80 -80l-399 399q-41 41 -41 100z" />
<glyph unicode=")" horiz-adv-x="806" d="M86 -315l363 362q43 43 43 103v958q0 59 -43 102l-363 363l80 80l399 -400q41 -41 41 -100v-1049q0 -59 -41 -100l-399 -399z" />
<glyph unicode="*" horiz-adv-x="1226" d="M143 985l33 98l385 -122v405h105v-405l385 122l32 -98l-387 -127l236 -326l-84 -63l-236 326l-233 -326l-84 63l235 326z" />
<glyph unicode="+" d="M131 434v107h436v434h107v-434h434v-107h-434v-434h-107v434h-436z" />
<glyph unicode="," horiz-adv-x="620" d="M170 -260l61 61q15 15 15 29v342h127v-344q0 -61 -41 -102l-74 -74z" />
<glyph unicode="-" horiz-adv-x="1032" d="M229 436v103h574v-103h-574z" />
<glyph unicode="." horiz-adv-x="620" d="M223 0v172h172v-172h-172z" />
<glyph unicode="/" horiz-adv-x="1132" d="M82 -172l852 1718h117l-852 -1718h-117z" />
<glyph unicode="0" d="M201 240v886q0 60 39 99l96 96q45 45 104 45h361q59 0 104 -45l96 -96q39 -39 39 -99v-886q0 -60 -39 -99l-96 -96q-45 -45 -104 -45h-361q-59 0 -104 45l-96 96q-39 39 -39 99zM315 242q0 -18 11 -29l86 -86q12 -12 30 -12h357q18 0 30 12l86 86q11 11 11 31v880 q0 18 -11 29l-86 86q-12 12 -30 12h-357q-18 0 -30 -12l-86 -86q-11 -11 -11 -29v-882z" />
<glyph unicode="1" d="M258 0v115h305v1128l-225 -201l-80 80l272 244h148v-1251h305v-115h-725z" />
<glyph unicode="2" d="M195 1180l141 141q45 45 104 45h361q59 0 104 -45l96 -96q39 -39 39 -99v-282q0 -43 -22 -77.5t-62 -53.5l-616 -279q-25 -11 -25 -37v-282h725v-115h-839v410q0 43 22 77.5t62 53.5l616 274q25 11 25 37v272q0 18 -11 29l-86 86q-12 12 -30 12h-357q-18 0 -30 -12 l-138 -137z" />
<glyph unicode="3" d="M195 186l79 78l138 -137q12 -12 30 -12h357q18 0 30 12l86 86q11 11 11 29v305q0 17 -11 28l-75 76q-13 13 -31 13h-313v114h313q18 0 31 13l75 75q11 11 11 29v229q0 18 -11 29l-86 86q-12 12 -30 12h-357q-18 0 -30 -12l-138 -137l-79 78l141 141q45 45 104 45h361 q59 0 104 -45l96 -96q39 -39 39 -99v-231q0 -59 -43 -102l-71 -72l73 -74q41 -41 41 -98v-309q0 -60 -39 -99l-96 -96q-45 -45 -104 -45h-361q-59 0 -104 45z" />
<glyph unicode="4" d="M121 389v115l575 862h172v-862h172v-115h-172v-389h-114v389h-633zM254 504h500v749z" />
<glyph unicode="5" d="M195 186l79 78l138 -137q12 -12 30 -12h357q18 0 30 12l86 86q11 11 11 29v368q0 12 -11 23l-86 86q-12 12 -30 12h-541v635h725v-115h-610v-405h428q59 0 104 -45l96 -96q39 -39 39 -93v-372q0 -60 -39 -99l-96 -96q-45 -45 -104 -45h-361q-59 0 -104 45z" />
<glyph unicode="6" d="M201 240v886q0 60 39 99l96 96q45 45 104 45h361q59 0 104 -45l142 -141l-80 -78l-138 137q-12 12 -30 12h-357q-18 0 -30 -12l-86 -86q-11 -11 -11 -29v-436l113 113q45 45 104 45h269q59 0 104 -45l96 -96q39 -39 39 -99v-366q0 -60 -39 -99l-96 -96q-45 -45 -104 -45 h-361q-59 0 -104 45l-96 96q-39 39 -39 99zM315 242q0 -18 11 -29l86 -86q12 -12 30 -12h357q18 0 30 12l86 86q11 11 11 31v358q0 20 -11 31l-86 86q-12 12 -30 12h-264q-19 0 -31 -12l-178 -178q-11 -11 -11 -29v-270z" />
<glyph unicode="7" d="M197 1251v115h843v-104l-589 -1262h-129l585 1251h-710z" />
<glyph unicode="8" d="M201 240v319q0 62 43 105l71 71l-71 72q-43 43 -43 104v215q0 60 39 99l96 96q45 45 104 45h361q59 0 104 -45l96 -96q39 -39 39 -99v-215q0 -61 -43 -104l-71 -72l71 -71q43 -43 43 -105v-319q0 -60 -39 -99l-96 -96q-45 -45 -104 -45h-361q-59 0 -104 45l-96 96 q-39 39 -39 99zM315 242q0 -18 11 -29l86 -86q12 -12 30 -12h357q18 0 30 12l86 86q11 11 11 31v315q0 18 -11 29l-77 78q-12 12 -31 12h-373q-19 0 -31 -12l-77 -78q-11 -11 -11 -29v-317zM315 911q0 -17 11 -28l77 -78q12 -12 31 -12h375q19 0 31 12l78 78q8 8 8 28v213 q0 18 -11 29l-86 86q-12 12 -30 12h-357q-18 0 -30 -12l-86 -86q-11 -11 -11 -29v-213z" />
<glyph unicode="9" d="M195 186l79 78l138 -137q12 -12 30 -12h357q18 0 30 12l86 86q11 11 11 29v436l-113 -113q-45 -45 -104 -45h-269q-59 0 -104 45l-96 97q-39 39 -39 98v366q0 60 39 99l96 96q45 45 104 45h361q59 0 104 -45l96 -96q39 -39 39 -99v-886q0 -60 -39 -99l-96 -96 q-45 -45 -104 -45h-361q-59 0 -104 45zM315 764q0 -20 11 -31l86 -86q12 -12 30 -12h265q18 0 30 12l178 178q11 11 11 29v270q0 18 -11 29l-86 86q-12 12 -30 12h-357q-18 0 -30 -12l-86 -86q-11 -11 -11 -31v-358z" />
<glyph unicode=":" horiz-adv-x="620" d="M223 0v172h172v-172h-172zM223 803v172h172v-172h-172z" />
<glyph unicode=";" horiz-adv-x="620" d="M170 -260l61 61q15 15 15 29v342h127v-344q0 -61 -41 -102l-74 -74zM223 803v172h172v-172h-172z" />
<glyph unicode="&#x3c;" d="M338 487l487 488l76 -76l-412 -412l412 -411l-76 -76z" />
<glyph unicode="=" d="M133 238v106h975v-106h-975zM133 635v106h975v-106h-975z" />
<glyph unicode="&#x3e;" d="M340 76l412 411l-412 412l76 76l487 -488l-487 -487z" />
<glyph unicode="?" horiz-adv-x="1026" d="M115 1200l125 125q41 41 98 41h258q57 0 98 -41l88 -88q43 -43 43 -102v-240q0 -59 -43 -102l-266 -267q-12 -12 -12 -28v-121h-117v123q0 59 41 100l268 268q13 13 13 29v231q0 16 -15 31l-82 82q-10 10 -28 10h-236q-17 0 -29 -12l-122 -123zM358 0v172h172v-172h-172z " />
<glyph unicode="@" horiz-adv-x="1634" d="M229 152v948q0 15 13 28l225 226q12 12 29 12h645q16 0 28 -12l224 -224q12 -12 12 -30v-721q0 -17 -12 -29l-86 -86q-12 -12 -29 -12h-174q-17 0 -29 12l-86 86l-86 -86q-12 -12 -29 -12h-208q-17 0 -29 12l-137 137q-13 13 -13 29v424q0 16 13 29l137 137q12 12 29 12 h208q17 0 29 -12l107 -107l39 119h114l-45 -141v-492q0 -16 12 -28l31 -31q22 -18 33 -17t27 17l57 57q12 12 12 29v631q0 18 -12 30l-152 152q-12 12 -28 12h-559q-17 0 -29 -12l-154 -154q-12 -12 -12 -30v-858q0 -19 12 -31l154 -154q12 -12 29 -12h751v-115h-794 q-16 0 -29 13l-225 225q-13 13 -13 29zM602 477q0 -16 12 -28l70 -70q12 -12 31 -12h108q17 0 29 12l139 139q13 13 13 29v190q0 16 -13 29l-139 139q-13 13 -29 13h-108q-18 0 -31 -13l-70 -69q-12 -12 -12 -29v-330z" />
<glyph unicode="A" horiz-adv-x="1409" d="M86 0l520 1366h201l516 -1366h-131l-150 391h-682l-147 -391h-127zM410 514h583l-291 780z" />
<glyph unicode="B" horiz-adv-x="1431" d="M258 0v1366h723q59 0 104 -45l107 -107q39 -39 39 -98v-213q0 -59 -43 -102l-119 -119l121 -121q41 -41 41 -98v-213q0 -59 -41 -100l-107 -107q-43 -43 -102 -43h-723zM385 127h590q17 0 29 12l90 90q12 12 12 29v199q0 16 -12 28l-123 123q-13 13 -29 13h-557v-494z M385 743h557q16 0 29 13l123 123q12 12 12 28v201q0 19 -10 29l-90 90q-12 12 -31 12h-590v-496z" />
<glyph unicode="C" horiz-adv-x="1292" d="M201 313v740q0 59 43 102l168 168q43 43 102 43h354q60 0 103 -43l207 -207l-91 -88l-198 199q-12 12 -29 12h-338q-16 0 -28 -12l-154 -154q-12 -12 -12 -29v-722q0 -17 12 -29l154 -154q12 -12 28 -12h338q17 0 29 12l198 199l91 -88l-207 -207q-43 -43 -103 -43h-354 q-59 0 -102 43l-168 168q-43 43 -43 102z" />
<glyph unicode="D" horiz-adv-x="1433" d="M258 0v1366h662q59 0 102 -43l168 -168q43 -43 43 -102v-740q0 -59 -43 -102l-168 -168q-43 -43 -102 -43h-662zM385 127h526q17 0 29 12l154 154q12 12 12 29v722q0 17 -12 29l-154 154q-12 12 -29 12h-526v-1112z" />
<glyph unicode="E" horiz-adv-x="1306" d="M258 0v1366h848v-127h-721v-491h721v-127h-721v-494h721v-127h-848z" />
<glyph unicode="F" horiz-adv-x="1253" d="M258 0v1366h852v-127h-725v-491h725v-127h-725v-621h-127z" />
<glyph unicode="G" horiz-adv-x="1531" d="M201 313v740q0 59 43 102l168 168q43 43 102 43h479q56 0 99 -43l206 -207l-90 -88l-198 199q-12 12 -29 12h-459q-16 0 -28 -12l-154 -154q-12 -12 -12 -29v-722q0 -17 12 -29l154 -154q12 -12 28 -12h375q17 0 29 12l241 242q13 13 13 29v211h-406v127h533v-490 l53 -258h-133l-47 215l-172 -172q-43 -43 -99 -43h-395q-59 0 -102 43l-168 168q-43 43 -43 102z" />
<glyph unicode="H" horiz-adv-x="1490" d="M258 0v1366h127v-618h721v618h127v-1366h-127v621h-721v-621h-127z" />
<glyph unicode="I" horiz-adv-x="880" d="M115 0v115h262v1136h-262v115h651v-115h-262v-1136h262v-115h-651z" />
<glyph unicode="J" horiz-adv-x="1114" d="M43 250l90 88l199 -199q12 -12 28 -12h203q17 0 29 12l153 154q13 13 13 29v917h-418v127h545v-1053q0 -59 -43 -102l-168 -168q-43 -43 -103 -43h-219q-59 0 -102 43z" />
<glyph unicode="K" horiz-adv-x="1208" d="M258 0v1366h127v-621l621 621h174l-682 -682l682 -684h-176l-619 621v-621h-127z" />
<glyph unicode="L" horiz-adv-x="1163" d="M258 0v1366h127v-1239h721v-127h-848z" />
<glyph unicode="M" horiz-adv-x="1769" d="M258 0v1366h234l393 -1161l393 1161h233v-1366h-127v1298l-438 -1298h-123l-438 1298v-1298h-127z" />
<glyph unicode="N" horiz-adv-x="1492" d="M258 0v1366h209l641 -1245v1245h127v-1366h-209l-641 1245v-1245h-127z" />
<glyph unicode="O" horiz-adv-x="1503" d="M201 313v740q0 59 43 102l168 168q43 43 102 43h475q60 0 103 -43l168 -168q43 -43 43 -102v-740q0 -59 -43 -102l-168 -168q-43 -43 -103 -43h-475q-59 0 -102 43l-168 168q-43 43 -43 102zM328 322q0 -17 12 -29l154 -154q12 -12 28 -12h459q17 0 29 12l153 154 q13 13 13 29v722q0 16 -13 29l-153 154q-12 12 -29 12h-459q-16 0 -28 -12l-154 -154q-12 -12 -12 -29v-722z" />
<glyph unicode="P" horiz-adv-x="1347" d="M258 0v1366h727q57 0 98 -41l107 -106q43 -43 43 -103v-254q0 -59 -43 -102l-105 -105q-41 -41 -100 -41h-600v-614h-127zM385 741h590q16 0 29 13l90 90q12 12 12 28v238q0 17 -12 29l-88 88q-12 12 -29 12h-592v-498z" />
<glyph unicode="Q" horiz-adv-x="1503" d="M201 313v740q0 59 43 102l168 168q43 43 102 43h475q60 0 103 -43l168 -168q43 -43 43 -102v-740q0 -59 -43 -102l-168 -168q-43 -43 -103 -43h-47l100 -236l-118 -49l-121 285h-289q-59 0 -102 43l-168 168q-43 43 -43 102zM328 322q0 -17 12 -29l154 -154 q12 -12 28 -12h226l-50 117l119 53l72 -170h92q17 0 29 12l153 154q13 13 13 29v722q0 16 -13 29l-153 154q-12 12 -29 12h-459q-16 0 -28 -12l-154 -154q-12 -12 -12 -29v-722z" />
<glyph unicode="R" horiz-adv-x="1476" d="M258 0v1366h727q57 0 98 -41l107 -106q43 -43 43 -103v-254q0 -59 -43 -102l-105 -105q-41 -41 -100 -41h-49l397 -614h-147l-377 596q-12 18 -35 18h-389v-614h-127zM385 741h590q16 0 29 13l90 90q12 12 12 28v238q0 17 -12 29l-88 88q-12 12 -29 12h-592v-498z" />
<glyph unicode="S" horiz-adv-x="1445" d="M172 254l90 88l203 -203q12 -12 29 -12h458q17 0 29 12l154 154q12 12 12 29v206q0 15 -12 27t-27 14l-809 101q-54 6 -90.5 47t-36.5 96v240q0 59 43 102l168 168q43 43 102 43h476q59 0 102 -43l211 -211l-90 -88l-203 203q-12 12 -29 12h-458q-17 0 -29 -12l-154 -154 q-12 -12 -12 -29v-206q0 -15 11 -27.5t26 -13.5l811 -101q54 -6 90.5 -47t36.5 -96v-240q0 -59 -43 -102l-168 -168q-43 -43 -102 -43h-476q-59 0 -102 43z" />
<glyph unicode="T" horiz-adv-x="1146" d="M86 1239v127h975v-127h-424v-1239h-127v1239h-424z" />
<glyph unicode="U" horiz-adv-x="1433" d="M229 313v1053h127v-1044q0 -16 13 -29l153 -154q12 -12 29 -12h332q16 0 28 12l154 154q12 12 12 29v1044h127v-1053q0 -59 -43 -102l-168 -168q-43 -43 -102 -43h-348q-60 0 -103 43l-168 168q-43 43 -43 102z" />
<glyph unicode="V" horiz-adv-x="1234" d="M57 1366h129l432 -1288l437 1288h123l-461 -1366h-203z" />
<glyph unicode="W" horiz-adv-x="1689" d="M115 1366h133l250 -1255l254 1255h200l246 -1255l258 1255h119l-285 -1366h-188l-258 1262l-260 -1262h-189z" />
<glyph unicode="X" horiz-adv-x="1212" d="M115 0l422 682l-422 684h151l340 -565l340 565h150l-422 -682l424 -684h-154l-338 565l-342 -565h-149z" />
<glyph unicode="Y" horiz-adv-x="1222" d="M57 1366h150l407 -629l406 629h145l-489 -762v-604h-127v604z" />
<glyph unicode="Z" horiz-adv-x="1318" d="M172 0v127l821 1112h-821v127h975v-127l-821 -1112h821v-127h-975z" />
<glyph unicode="[" horiz-adv-x="800" d="M258 -389v2040h428v-117h-311v-1806h311v-117h-428z" />
<glyph unicode="\" horiz-adv-x="1132" d="M82 1546h117l852 -1718h-117z" />
<glyph unicode="]" horiz-adv-x="800" d="M115 -272h311v1806h-311v117h428v-2040h-428v117z" />
<glyph unicode="^" d="M133 885l488 487l487 -487l-76 -76l-411 412l-412 -412z" />
<glyph unicode="_" horiz-adv-x="1024" d="M0 -506h1024v-117h-1024v117z" />
<glyph unicode="`" horiz-adv-x="952" d="M246 1366h147l314 -313h-148z" />
<glyph unicode="a" horiz-adv-x="1173" d="M115 236v165q0 60 43 103l86 86q43 43 102 43h496v106q0 16 -13 29l-79 80q-12 12 -29 12h-369q-16 0 -28 -12l-88 -88l-80 82l92 92q41 41 100 41h377q59 0 100 -41l90 -90q43 -43 43 -105v-561q0 -15 13 -28l69 -70l-79 -80l-119 119l-78 -78q-41 -41 -100 -41h-316 q-59 0 -100 41l-90 90q-43 43 -43 105zM231 236q0 -16 13 -29l80 -80q12 -12 28 -12h307q17 0 29 12l141 141q13 13 13 29v221h-490q-16 0 -28 -12l-80 -80q-13 -13 -13 -29v-161z" />
<glyph unicode="b" horiz-adv-x="1187" d="M168 0l33 162v1204h116v-553l119 119q43 43 103 43h272q59 0 100 -41l90 -90q43 -43 43 -105v-499q0 -66 -43 -109l-90 -90q-41 -41 -100 -41h-272q-60 0 -103 43l-119 119l-34 -162h-115zM317 334q0 -16 13 -29l178 -178q12 -12 31 -12h268q17 0 29 12l79 80 q13 13 13 39v493q0 16 -13 29l-79 80q-12 12 -29 12h-268q-19 0 -31 -12l-178 -178q-13 -13 -13 -29v-307z" />
<glyph unicode="c" horiz-adv-x="1067" d="M143 236v503q0 62 43 105l90 90q41 41 101 41h377q59 0 100 -41l127 -127l-82 -82l-121 123q-12 12 -28 12h-369q-17 0 -29 -12l-80 -80q-12 -12 -12 -29v-503q0 -17 12 -29l80 -80q12 -12 29 -12h369q16 0 28 12l121 123l82 -82l-127 -127q-41 -41 -100 -41h-377 q-60 0 -101 41l-90 90q-43 43 -43 105z" />
<glyph unicode="d" horiz-adv-x="1187" d="M143 240v499q0 62 43 105l90 90q41 41 101 41h272q60 0 103 -43l118 -119v553h117v-1204l33 -162h-115l-35 162l-118 -119q-43 -43 -103 -43h-272q-60 0 -101 41l-90 90q-43 43 -43 109zM260 246q0 -27 12 -39l80 -80q12 -12 29 -12h268q19 0 31 12l178 178q12 12 12 29 v307q0 17 -12 29l-178 178q-12 12 -31 12h-268q-17 0 -29 -12l-80 -80q-12 -12 -12 -29v-493z" />
<glyph unicode="e" horiz-adv-x="1130" d="M143 236v503q0 62 43 105l90 90q41 41 101 41h377q59 0 100 -41l90 -90q43 -43 43 -105v-270h-727v-233q0 -17 12 -29l80 -80q12 -12 29 -12h369q16 0 28 12l121 123l82 -82l-127 -127q-41 -41 -100 -41h-377q-60 0 -101 41l-90 90q-43 43 -43 105zM260 586h610v153 q0 17 -12 29l-80 80q-12 12 -28 12h-369q-17 0 -29 -12l-80 -80q-12 -12 -12 -29v-153z" />
<glyph unicode="f" horiz-adv-x="716" d="M72 860v115h139v151q0 66 43 109l90 90q41 41 100 41h201v-115h-196q-17 0 -29 -12l-80 -80q-12 -12 -12 -39v-145h317v-115h-317v-860h-117v860h-139z" />
<glyph unicode="g" horiz-adv-x="1187" d="M143 236v499q0 66 43 109l90 90q41 41 101 41h272q60 0 103 -43l118 -119l35 162h115l-33 -162v-967q0 -61 -43 -104l-90 -90q-41 -41 -100 -41h-377q-60 0 -101 41l-126 127l81 82l121 -123q12 -12 29 -12h369q16 0 28 12l80 80q12 12 12 28v316l-118 -119 q-43 -43 -103 -43h-272q-60 0 -101 41l-90 90q-43 43 -43 105zM260 236q0 -17 12 -29l80 -80q12 -12 29 -12h268q19 0 31 12l178 178q12 12 12 29v307q0 17 -12 29l-178 178q-12 12 -31 12h-268q-17 0 -29 -12l-80 -80q-12 -12 -12 -39v-493z" />
<glyph unicode="h" horiz-adv-x="1193" d="M201 0v1366h116v-553l119 119q43 43 103 43h221q59 0 100 -41l90 -90q43 -43 43 -105v-739h-116v739q0 16 -13 29l-80 80q-12 12 -28 12h-217q-19 0 -31 -12l-178 -178q-13 -13 -13 -29v-641h-116z" />
<glyph unicode="i" horiz-adv-x="532" d="M8 860v115h324v-975h-117v860h-207zM184 1194v172h172v-172h-172z" />
<glyph unicode="j" horiz-adv-x="546" d="M-92 -274h201q16 0 28 12l80 80q12 12 12 39v1003h-206v115h323v-1125q0 -65 -43 -108l-90 -90q-41 -41 -100 -41h-205v115zM199 1194v172h172v-172h-172z" />
<glyph unicode="k" horiz-adv-x="978" d="M201 0v1366h116v-811l414 420h164l-461 -461l516 -514h-164l-469 469v-469h-116z" />
<glyph unicode="l" horiz-adv-x="518" d="M-6 1251v115h323v-1366h-116v1251h-207z" />
<glyph unicode="m" horiz-adv-x="1636" d="M160 975h119l38 -162l119 119q43 43 103 43h104q59 0 100 -41l127 -127l125 125q43 43 103 43h104q60 0 101 -41l90 -90q43 -43 43 -105v-739h-117v739q0 17 -12 29l-80 80q-12 12 -29 12h-100q-19 0 -31 -12l-178 -178q-12 -12 -12 -29v-641h-117v739q0 17 -12 29 l-80 80q-12 12 -29 12h-100q-19 0 -31 -12l-178 -178q-13 -13 -13 -29v-641h-116v805z" />
<glyph unicode="n" horiz-adv-x="1193" d="M160 975h119l38 -162l119 119q43 43 103 43h221q59 0 100 -41l90 -90q43 -43 43 -105v-739h-116v739q0 16 -13 29l-80 80q-12 12 -28 12h-217q-19 0 -31 -12l-178 -178q-13 -13 -13 -29v-641h-116v805z" />
<glyph unicode="o" horiz-adv-x="1130" d="M143 236v503q0 62 43 105l90 90q41 41 101 41h377q59 0 100 -41l90 -90q43 -43 43 -105v-499q0 -66 -43 -109l-90 -90q-41 -41 -100 -41h-377q-60 0 -101 41l-90 90q-43 43 -43 105zM260 236q0 -17 12 -29l80 -80q12 -12 29 -12h369q16 0 28 12l80 80q12 12 12 39v493 q0 17 -12 29l-80 80q-12 12 -28 12h-369q-17 0 -29 -12l-80 -80q-12 -12 -12 -29v-503z" />
<glyph unicode="p" horiz-adv-x="1187" d="M168 975h115l34 -162l119 119q43 43 103 43h272q59 0 100 -41l90 -90q43 -43 43 -109v-499q0 -62 -43 -105l-90 -90q-41 -41 -100 -41h-272q-60 0 -103 43l-119 119v-553h-116v1204zM317 334q0 -16 13 -29l178 -178q12 -12 31 -12h268q17 0 29 12l79 80q13 13 13 29v493 q0 26 -13 39l-79 80q-12 12 -29 12h-268q-19 0 -31 -12l-178 -178q-13 -13 -13 -29v-307z" />
<glyph unicode="q" horiz-adv-x="1187" d="M143 236v499q0 66 43 109l90 90q41 41 101 41h272q60 0 103 -43l118 -119l35 162h115l-33 -162v-1204h-117v553l-118 -119q-43 -43 -103 -43h-272q-60 0 -101 41l-90 90q-43 43 -43 105zM260 236q0 -17 12 -29l80 -80q12 -12 29 -12h268q19 0 31 12l178 178q12 12 12 29 v307q0 17 -12 29l-178 178q-12 12 -31 12h-268q-17 0 -29 -12l-80 -80q-12 -12 -12 -39v-493z" />
<glyph unicode="r" horiz-adv-x="1048" d="M160 975h119l38 -162l119 119q43 43 103 43h161q60 0 101 -41l90 -90q43 -43 43 -105v-145h-117v145q0 17 -12 29l-80 80q-12 12 -29 12h-157q-19 0 -31 -12l-178 -178q-13 -13 -13 -29v-641h-116v805z" />
<glyph unicode="s" horiz-adv-x="1075" d="M143 176l80 82l131 -131q12 -12 29 -12h311q17 0 29 12l80 80q12 12 12 39v119q0 15 -11 27.5t-26 13.5l-506 59q-55 6 -91 45.5t-36 95.5v133q0 62 43 105l91 90q41 41 100 41h319q60 0 101 -41l133 -133l-80 -82l-129 129q-12 12 -29 12h-311q-17 0 -29 -12l-80 -80 q-12 -12 -12 -29v-118q0 -15 11 -27.5t26 -13.5l508 -64q54 -6 89.5 -46.5t35.5 -96.5v-133q0 -66 -43 -109l-90 -90q-41 -41 -101 -41h-319q-59 0 -100 41z" />
<glyph unicode="t" horiz-adv-x="749" d="M90 860v115h139v391h117v-391h318v-115h-318v-614q0 -27 12 -39l80 -80q12 -12 29 -12h197v-115h-201q-60 0 -101 41l-90 90q-43 43 -43 109v620h-139z" />
<glyph unicode="u" horiz-adv-x="1193" d="M201 236v739h116v-739q0 -16 13 -29l80 -80q12 -12 28 -12h217q19 0 31 12l178 178q13 13 13 29v641h116v-805l41 -170h-119l-38 162l-119 -119q-43 -43 -103 -43h-221q-59 0 -100 41l-90 90q-43 43 -43 105z" />
<glyph unicode="v" horiz-adv-x="1007" d="M86 975h123l297 -877l299 877h117l-328 -975h-180z" />
<glyph unicode="w" horiz-adv-x="1609" d="M115 975h121l237 -873l234 873h196l240 -873l231 873h121l-260 -975h-184l-246 895l-238 -895h-184z" />
<glyph unicode="x" horiz-adv-x="958" d="M57 0l359 487l-357 488h146l276 -393l277 393h143l-356 -486l356 -489h-145l-277 395l-280 -395h-142z" />
<glyph unicode="y" horiz-adv-x="966" d="M57 975h125l295 -807l297 807h121l-502 -1364h-123l144 391z" />
<glyph unicode="z" horiz-adv-x="954" d="M86 0v115l633 745h-633v115h782v-115l-635 -745h635v-115h-782z" />
<glyph unicode="{" horiz-adv-x="806" d="M201 629q0 45 53 98l113 113q12 12 12 28v453q0 59 43 102l227 230l72 -72l-215 -215q-12 -12 -12 -29v-452q0 -60 -43 -103l-113 -112q-20 -21 -19 -42.5t19 -39.5l113 -113q43 -43 43 -102v-455q0 -17 12 -29l215 -213l-72 -71l-227 227q-43 43 -43 102v455 q0 17 -12 29l-113 112q-53 53 -53 99z" />
<glyph unicode="|" horiz-adv-x="620" d="M252 -391v1757h115v-1757h-115z" />
<glyph unicode="}" horiz-adv-x="806" d="M86 -324l215 213q12 12 12 29v455q0 59 43 102l113 113q18 18 19 39.5t-19 42.5l-113 112q-43 43 -43 103v452q0 17 -12 29l-215 215l72 72l227 -230q43 -43 43 -102v-453q0 -16 12 -28l113 -113q53 -53 53 -98q0 -46 -53 -99l-113 -112q-12 -12 -12 -29v-455 q0 -59 -43 -102l-227 -227z" />
<glyph unicode="~" d="M106 356l267 267q24 24 67 24q44 0 70 -26l233 -234q21 -18 43 0l273 272l76 -75l-301 -301q-27 -27 -68 -27q-45 0 -70 25l-235 235q-21 22 -43 0l-236 -235z" />
<glyph unicode="&#xa1;" horiz-adv-x="620" d="M225 803v172h172v-172h-172zM252 -391v977h117v-977h-117z" />
<glyph unicode="&#xa2;" d="M203 236v503q0 62 43 105l90 90q41 41 100 41h135v203h107v-203h135q59 0 100 -41l127 -127l-82 -82l-120 123q-12 12 -29 12h-131v-745h131q17 0 29 12l120 123l82 -82l-127 -127q-41 -41 -100 -41h-135v-197h-107v197h-135q-59 0 -100 41l-90 90q-43 43 -43 105z M319 236q0 -16 13 -29l80 -80q12 -12 28 -12h131v745h-131q-16 0 -28 -12l-80 -80q-13 -13 -13 -29v-503z" />
<glyph unicode="&#xa3;" d="M172 0v115h117v510h-117v114h117v387q0 60 41 101l96 96q43 43 102 43h390q59 0 102 -43l129 -129l-84 -84l-129 129q-12 12 -29 12h-370q-19 0 -31 -12l-90 -90q-10 -10 -10 -29v-381h630v-114h-630v-510h743v-115h-977z" />
<glyph unicode="&#xa4;" d="M115 506v102h172v154h-172v102h172v189q0 59 43 102l168 168q43 43 102 43h229q60 0 103 -43l207 -207l-82 -84l-207 207q-12 12 -29 12h-213q-16 0 -28 -12l-166 -166q-13 -13 -13 -29v-180h314v-102h-314v-154h314v-102h-314v-184q0 -16 13 -29l166 -166q12 -12 28 -12 h213q17 0 29 12l205 207l84 -84l-207 -207q-43 -43 -103 -43h-229q-59 0 -102 43l-168 168q-43 43 -43 102v193h-172z" />
<glyph unicode="&#xa5;" d="M84 1366h147l390 -608l389 608h147l-326 -502h218v-102h-283l-84 -127v-27h367v-102h-367v-506h-123v506h-366v102h366v27l-86 127h-280v102h217z" />
<glyph unicode="&#xa6;" horiz-adv-x="620" d="M252 195h115v-586h-115v586zM252 780v586h115v-586h-115z" />
<glyph unicode="&#xa7;" d="M258 -23l80 80l125 -125q12 -12 29 -12h256q18 0 30 12l78 78q10 10 10 29v178q0 22 -20 35l-588 348l59 102l596 -356q70 -42 70 -123v-188q0 -60 -43 -103l-84 -84q-43 -43 -102 -43h-265q-59 0 -98 39zM258 948v189q0 59 43 102l84 84q43 43 102 43h265q59 0 98 -39 l133 -133l-80 -80l-125 125q-12 12 -28 12h-256q-19 0 -31 -12l-78 -78q-10 -10 -10 -28v-179q0 -21 20 -34l588 -349l-59 -102l-596 356q-70 42 -70 123z" />
<glyph unicode="&#xa8;" horiz-adv-x="952" d="M172 1194v172h172v-172h-172zM608 1194v172h172v-172h-172z" />
<glyph unicode="&#xa9;" horiz-adv-x="1691" d="M115 682q0 148 58 283.5t156 233.5t233.5 156t283.5 58t283.5 -58t233.5 -156t156 -233.5t58 -283.5t-58 -283.5t-156 -233.5t-233.5 -156t-283.5 -58t-283.5 58t-233.5 156t-156 233.5t-58 283.5zM217 682q0 -128 49.5 -245t134 -202t201 -135.5t244.5 -50.5t244.5 50.5 t201 135.5t134 202t49.5 245t-49.5 245t-134 202t-201 135.5t-244.5 50.5t-244.5 -50.5t-201 -135.5t-134 -202t-49.5 -245zM477 430v506q0 41 29 70l115 114q29 29 69 29h303q41 0 70 -29l141 -141l-69 -70l-129 129q-9 9 -19 9h-291q-9 0 -18 -9l-90 -90q-8 -8 -8 -20 v-490q0 -12 8 -20l90 -90q9 -9 18 -9h291q10 0 19 9l129 129l69 -70l-141 -141q-32 -29 -70 -29h-303q-37 0 -69 29l-115 114q-29 29 -29 70z" />
<glyph unicode="&#xaa;" horiz-adv-x="790" d="M43 854v102q0 45 31 76l65 66q28 28 74 28h348v72q0 15 -8 23l-43 43q-8 8 -21 8h-274q-12 0 -20 -8l-56 -56l-65 64l65 65q29 29 74 29h279q44 0 73 -29l66 -65q31 -31 31 -76v-377q0 -12 8 -20l47 -47l-68 -68l-76 76l-47 -47q-29 -29 -73 -29h-240q-45 0 -74 29 l-65 65q-31 31 -31 76zM143 852q0 -14 9 -23l43 -43q8 -8 22 -8h229q15 0 23 8l84 84q8 8 8 21v141h-344q-14 0 -22 -8l-43 -43q-9 -9 -9 -23v-106z" />
<glyph unicode="&#xab;" horiz-adv-x="1198" d="M201 487q0 60 41 101l278 278l80 -80l-270 -270q-12 -12 -12 -28.5t12 -28.5l270 -271l-80 -79l-278 278q-41 41 -41 100zM598 487q0 60 41 101l279 278l79 -80l-270 -270q-12 -12 -12 -28.5t12 -28.5l270 -271l-79 -79l-279 278q-41 41 -41 100z" />
<glyph unicode="&#xac;" d="M133 635v106h975v-741h-107v635h-868z" />
<glyph unicode="&#xad;" horiz-adv-x="1032" d="M229 436v103h574v-103h-574z" />
<glyph unicode="&#xae;" horiz-adv-x="1114" d="M86 942q0 195 138 333t333 138t333 -138t138 -333t-138 -333t-333 -138t-333 138t-138 333zM154 942q0 -168 118 -287.5t285 -119.5t285.5 119.5t118.5 287.5t-118.5 288t-285.5 120t-285 -120t-118 -288zM389 647v592h256q39 0 68 -29l39 -41q22 -20 22 -63v-68 q0 -43 -22 -63l-39 -41q-29 -29 -68 -29h-49l184 -258h-73l-175 246q-9 12 -22 12h-55v-258h-66zM455 969h186q13 0 18 8l43 43q7 5 7 18v70q0 13 -7 18l-43 43q-6 9 -18 9h-186v-209z" />
<glyph unicode="&#xaf;" horiz-adv-x="952" d="M162 1180v102h631v-102h-631z" />
<glyph unicode="&#xb0;" d="M344 944v279q0 81 31 112q15 15 39 22.5t35.5 8t37.5 0.5h267q26 0 37.5 -0.5t35.5 -8t39 -22.5q31 -31 31 -112v-279q0 -82 -31 -113q-15 -15 -39.5 -22t-34.5 -7.5t-38 -0.5h-267h-11h-12t-12 0.5t-14 1.5t-12.5 2t-14 3.5t-12.5 5.5t-13 7.5t-11 9.5q-31 31 -31 113z M444 950q0 -49 50 -49h254q26 0 37.5 11t11.5 38v267q0 27 -11.5 38t-37.5 11h-254q-50 0 -50 -49v-267z" />
<glyph unicode="&#xb1;" d="M133 0h975v-106h-975v106zM133 492v106h434v377h107v-377h434v-106h-434v-377h-107v377h-434z" />
<glyph unicode="&#xb2;" horiz-adv-x="651" d="M57 1249l88 88q29 29 70 29h211q41 0 70 -29l57 -57q27 -27 27 -61v-172q0 -56 -56 -82l-358 -164q-12 -8 -12 -19v-145h426v-90h-517v252q0 55 58 82l356 163q12 6 12 17v145q0 9 -4 13l-51 51q-6 6 -16 6h-187q-10 0 -16 -6l-88 -88z" />
<glyph unicode="&#xb3;" horiz-adv-x="651" d="M57 664l70 67l88 -88q6 -6 16 -6h187q10 0 16 6l51 51q4 4 4 13v157q0 9 -4 13l-51 51q-6 6 -16 6h-172v90h172q10 0 16 6l51 51q4 4 4 13v112q0 9 -4 13l-51 51q-6 6 -16 6h-187q-10 0 -16 -6l-88 -88l-70 67l88 88q29 29 70 29h211q41 0 70 -29l57 -57q27 -27 27 -61 v-138q0 -30 -27 -57l-45 -45l45 -45q27 -27 27 -57v-183q0 -34 -27 -61l-57 -58q-28 -28 -70 -28h-211q-42 0 -70 28z" />
<glyph unicode="&#xb4;" horiz-adv-x="952" d="M246 1053l313 313h148l-314 -313h-147z" />
<glyph unicode="&#xb6;" d="M115 901v215q0 63 35 98l106 107q45 45 104 45h623v-1366h-115v1251h-172v-1251h-114v651h-222q-59 0 -104 45l-106 107q-35 35 -35 98zM229 903q0 -18 11 -29l96 -96q12 -12 31 -12h215v485h-215q-19 0 -31 -12l-96 -96q-11 -11 -11 -29v-211z" />
<glyph unicode="&#xb7;" horiz-adv-x="620" d="M223 598v172h172v-172h-172z" />
<glyph unicode="&#xb8;" horiz-adv-x="952" d="M332 -59l84 84l205 -205l-205 -205l-82 82l121 121z" />
<glyph unicode="&#xb9;" horiz-adv-x="651" d="M111 547v88h170v633l-111 -107l-59 60l153 145h107v-731h170v-88h-430z" />
<glyph unicode="&#xba;" horiz-adv-x="790" d="M86 854v342q0 45 31 76l65 65q29 29 74 29h279q44 0 73 -29l66 -65q31 -31 31 -76v-342q0 -45 -31 -76l-66 -65q-29 -29 -73 -29h-279q-45 0 -74 29l-65 65q-31 31 -31 76zM186 852q0 -14 9 -23l43 -43q8 -8 22 -8h272q13 0 21 8l43 43q8 8 8 23v346q0 15 -8 23l-43 43 q-8 8 -21 8h-272q-14 0 -22 -8l-43 -43q-9 -9 -9 -23v-346z" />
<glyph unicode="&#xbb;" horiz-adv-x="1198" d="M201 188l270 271q12 12 12 28.5t-12 28.5l-270 270l80 80l278 -278q41 -41 41 -101q0 -59 -41 -100l-278 -278zM598 188l270 271q12 12 12 28.5t-12 28.5l-270 270l80 80l278 -278q41 -41 41 -101q0 -59 -41 -100l-278 -278z" />
<glyph unicode="&#xbc;" horiz-adv-x="1701" d="M111 547v88h170v633l-111 -107l-59 60l153 145h107v-731h170v-88h-430zM412 0l741 1376h100l-741 -1376h-100zM981 223v90l346 506h127v-506h105v-90h-105v-223h-90v223h-383zM1079 313h285v414z" />
<glyph unicode="&#xbd;" horiz-adv-x="1701" d="M111 547v88h170v633l-111 -107l-59 60l153 145h107v-731h170v-88h-430zM412 0l741 1376h100l-741 -1376h-100zM1122 702l88 89q28 28 70 28h211q42 0 70 -28l57 -58q27 -27 27 -61v-172q0 -56 -56 -82l-358 -164q-12 -8 -12 -18v-146h426v-90h-517v252q0 55 58 82 l356 164q12 6 12 16v145q0 9 -4 13l-51 51q-6 6 -16 6h-187q-10 0 -16 -6l-88 -88z" />
<glyph unicode="&#xbe;" horiz-adv-x="1701" d="M57 664l70 67l88 -88q6 -6 16 -6h187q10 0 16 6l51 51q4 4 4 13v157q0 9 -4 13l-51 51q-6 6 -16 6h-172v90h172q10 0 16 6l51 51q4 4 4 13v112q0 9 -4 13l-51 51q-6 6 -16 6h-187q-10 0 -16 -6l-88 -88l-70 67l88 88q29 29 70 29h211q41 0 70 -29l57 -57q27 -27 27 -61 v-138q0 -30 -27 -57l-45 -45l45 -45q27 -27 27 -57v-183q0 -34 -27 -61l-57 -58q-28 -28 -70 -28h-211q-42 0 -70 28zM453 0l741 1376h100l-741 -1376h-100zM981 223v90l346 506h127v-506h105v-90h-105v-223h-90v223h-383zM1079 313h285v414z" />
<glyph unicode="&#xbf;" horiz-adv-x="1026" d="M201 80q0 59 43 102l266 267q12 12 12 28v121h117v-123q0 -59 -41 -100l-268 -269q-13 -13 -13 -28v-232q0 -15 15 -30l82 -82q10 -10 28 -10h236q17 0 29 12l122 123l82 -84l-125 -125q-41 -41 -98 -41h-258q-57 0 -98 41l-88 88q-43 43 -43 102v240zM496 803v172h172 v-172h-172z" />
<glyph unicode="&#xc0;" horiz-adv-x="1409" d="M86 0l520 1366h201l516 -1366h-131l-150 391h-682l-147 -391h-127zM332 1786h147l314 -313h-148zM410 514h583l-291 780z" />
<glyph unicode="&#xc1;" horiz-adv-x="1409" d="M86 0l520 1366h201l516 -1366h-131l-150 391h-682l-147 -391h-127zM410 514h583l-291 780zM621 1473l313 313h147l-313 -313h-147z" />
<glyph unicode="&#xc2;" horiz-adv-x="1409" d="M86 0l520 1366h201l516 -1366h-131l-150 391h-682l-147 -391h-127zM324 1516l270 270h221l270 -270h-147l-233 233l-234 -233h-147zM410 514h583l-291 780z" />
<glyph unicode="&#xc3;" horiz-adv-x="1409" d="M86 0l520 1366h201l516 -1366h-131l-150 391h-682l-147 -391h-127zM309 1606l176 114q39 25 76 25q40 0 82 -27l170 -114q20 -14 45 0l186 116l56 -90l-180 -117q-37 -24 -76 -24q-40 0 -82 27l-180 118q-22 16 -45 0l-168 -112zM410 514h583l-291 780z" />
<glyph unicode="&#xc4;" horiz-adv-x="1409" d="M86 0l520 1366h201l516 -1366h-131l-150 391h-682l-147 -391h-127zM401 1556v173h172v-173h-172zM410 514h583l-291 780zM838 1556v173h172v-173h-172z" />
<glyph unicode="&#xc5;" horiz-adv-x="1409" d="M86 0l461 1206q-36 19 -58 53.5t-22 75.5v176q0 60 41.5 102t101.5 42h174q60 0 102 -42t42 -102v-176q0 -77 -64 -118l459 -1217h-131l-148 391h-684l-147 -391h-127zM410 514h585l-256 680q-11 29 -37 29t-36 -27zM582 1350q0 -17 12 -29t29 -12h149q17 0 29 12t12 29 v153q0 17 -12 29t-29 12h-149q-17 0 -29 -12t-12 -29v-153z" />
<glyph unicode="&#xc6;" horiz-adv-x="1796" d="M229 0v1055q0 59 45 104l166 166q41 41 99 41h1056v-127h-571v-491h571v-127h-571v-494h571v-127h-698v621h-541v-621h-127zM356 748h541v491h-350q-17 0 -29 -12l-149 -150q-13 -13 -13 -28v-301z" />
<glyph unicode="&#xc7;" horiz-adv-x="1292" d="M201 313v740q0 59 43 102l168 168q43 43 102 43h354q60 0 103 -43l207 -207l-91 -88l-198 199q-12 12 -29 12h-338q-16 0 -28 -12l-154 -154q-12 -12 -12 -29v-722q0 -17 12 -29l154 -154q12 -12 28 -12h338q17 0 29 12l198 199l91 -88l-207 -207q-43 -43 -103 -43h-151 l178 -178l-205 -205l-82 82l121 121l-123 123l58 57h-150q-59 0 -102 43l-168 168q-43 43 -43 102z" />
<glyph unicode="&#xc8;" horiz-adv-x="1306" d="M258 0v1366h848v-127h-721v-491h721v-127h-721v-494h721v-127h-848zM451 1786h147l313 -313h-147z" />
<glyph unicode="&#xc9;" horiz-adv-x="1306" d="M258 0v1366h848v-127h-721v-491h721v-127h-721v-494h721v-127h-848zM451 1473l313 313h147l-313 -313h-147z" />
<glyph unicode="&#xca;" horiz-adv-x="1306" d="M258 0v1366h848v-127h-721v-491h721v-127h-721v-494h721v-127h-848zM301 1516l270 270h222l270 -270h-148l-233 233l-233 -233h-148z" />
<glyph unicode="&#xcb;" horiz-adv-x="1306" d="M258 0v1366h848v-127h-721v-491h721v-127h-721v-494h721v-127h-848zM379 1556v173h172v-173h-172zM815 1556v173h172v-173h-172z" />
<glyph unicode="&#xcc;" horiz-adv-x="880" d="M115 0v115h262v1136h-262v115h651v-115h-262v-1136h262v-115h-651zM147 1786h148l313 -313h-147z" />
<glyph unicode="&#xcd;" horiz-adv-x="880" d="M115 0v115h262v1136h-262v115h651v-115h-262v-1136h262v-115h-651zM272 1473l314 313h147l-313 -313h-148z" />
<glyph unicode="&#xce;" horiz-adv-x="880" d="M59 1516l271 270h221l270 -270h-147l-234 233l-233 -233h-148zM115 0v115h262v1136h-262v115h651v-115h-262v-1136h262v-115h-651z" />
<glyph unicode="&#xcf;" horiz-adv-x="880" d="M115 0v115h262v1136h-262v115h651v-115h-262v-1136h262v-115h-651zM137 1556v173h172v-173h-172zM573 1556v173h172v-173h-172z" />
<glyph unicode="&#xd0;" horiz-adv-x="1433" d="M68 618v127h190v621h662q59 0 102 -43l168 -168q43 -43 43 -102v-740q0 -59 -43 -102l-168 -168q-43 -43 -102 -43h-662v618h-190zM385 127h526q17 0 29 12l154 154q12 12 12 29v722q0 17 -12 29l-154 154q-12 12 -29 12h-526v-494h360v-127h-360v-491z" />
<glyph unicode="&#xd1;" horiz-adv-x="1492" d="M258 0v1366h209l641 -1245v1245h127v-1366h-209l-641 1245v-1245h-127zM350 1606l176 114q39 25 76 25q40 0 82 -27l170 -114q20 -14 45 0l186 116l56 -90l-180 -117q-38 -24 -76 -24q-40 0 -82 27l-180 118q-23 16 -45 0l-168 -112z" />
<glyph unicode="&#xd2;" horiz-adv-x="1503" d="M201 313v740q0 59 43 102l168 168q43 43 102 43h475q60 0 103 -43l168 -168q43 -43 43 -102v-740q0 -59 -43 -102l-168 -168q-43 -43 -103 -43h-475q-59 0 -102 43l-168 168q-43 43 -43 102zM328 322q0 -17 12 -29l154 -154q12 -12 28 -12h459q17 0 29 12l153 154 q13 13 13 29v722q0 16 -13 29l-153 154q-12 12 -29 12h-459q-16 0 -28 -12l-154 -154q-12 -12 -12 -29v-722zM440 1786h148l313 -313h-147z" />
<glyph unicode="&#xd3;" horiz-adv-x="1503" d="M201 313v740q0 59 43 102l168 168q43 43 102 43h475q60 0 103 -43l168 -168q43 -43 43 -102v-740q0 -59 -43 -102l-168 -168q-43 -43 -103 -43h-475q-59 0 -102 43l-168 168q-43 43 -43 102zM328 322q0 -17 12 -29l154 -154q12 -12 28 -12h459q17 0 29 12l153 154 q13 13 13 29v722q0 16 -13 29l-153 154q-12 12 -29 12h-459q-16 0 -28 -12l-154 -154q-12 -12 -12 -29v-722zM610 1473l314 313h147l-313 -313h-148z" />
<glyph unicode="&#xd4;" horiz-adv-x="1503" d="M201 313v740q0 59 43 102l168 168q43 43 102 43h475q60 0 103 -43l168 -168q43 -43 43 -102v-740q0 -59 -43 -102l-168 -168q-43 -43 -103 -43h-475q-59 0 -102 43l-168 168q-43 43 -43 102zM328 322q0 -17 12 -29l154 -154q12 -12 28 -12h459q17 0 29 12l153 154 q13 13 13 29v722q0 16 -13 29l-153 154q-12 12 -29 12h-459q-16 0 -28 -12l-154 -154q-12 -12 -12 -29v-722zM371 1516l270 270h221l271 -270h-148l-233 233l-234 -233h-147z" />
<glyph unicode="&#xd5;" horiz-adv-x="1503" d="M201 313v740q0 59 43 102l168 168q43 43 102 43h475q60 0 103 -43l168 -168q43 -43 43 -102v-740q0 -59 -43 -102l-168 -168q-43 -43 -103 -43h-475q-59 0 -102 43l-168 168q-43 43 -43 102zM328 322q0 -17 12 -29l154 -154q12 -12 28 -12h459q17 0 29 12l153 154 q13 13 13 29v722q0 16 -13 29l-153 154q-12 12 -29 12h-459q-16 0 -28 -12l-154 -154q-12 -12 -12 -29v-722zM356 1606l176 114q39 25 76 25q40 0 82 -27l170 -114q20 -14 45 0l187 116l55 -90l-180 -117q-37 -24 -76 -24q-40 0 -82 27l-180 118q-23 16 -45 0l-168 -112z " />
<glyph unicode="&#xd6;" horiz-adv-x="1503" d="M201 313v740q0 59 43 102l168 168q43 43 102 43h475q60 0 103 -43l168 -168q43 -43 43 -102v-740q0 -59 -43 -102l-168 -168q-43 -43 -103 -43h-475q-59 0 -102 43l-168 168q-43 43 -43 102zM328 322q0 -17 12 -29l154 -154q12 -12 28 -12h459q17 0 29 12l153 154 q13 13 13 29v722q0 16 -13 29l-153 154q-12 12 -29 12h-459q-16 0 -28 -12l-154 -154q-12 -12 -12 -29v-722zM446 1556v173h172v-173h-172zM883 1556v173h172v-173h-172z" />
<glyph unicode="&#xd7;" d="M180 115l367 366l-367 367l74 74l367 -367l366 367l74 -74l-367 -367l367 -366l-74 -74l-366 367l-367 -367z" />
<glyph unicode="&#xd8;" horiz-adv-x="1503" d="M201 313v740q0 59 43 102l168 168q43 43 102 43h344l70 289l112 -27l-63 -262h12q60 0 103 -43l168 -168q43 -43 43 -102v-740q0 -59 -43 -102l-168 -168q-43 -43 -103 -43h-338l-67 -285l-115 29l61 256h-16q-59 0 -102 43l-168 168q-43 43 -43 102zM328 322 q0 -17 12 -29l154 -154q12 -12 28 -12h39l266 1112h-305q-16 0 -28 -12l-154 -154q-12 -12 -12 -29v-722zM682 127h299q17 0 29 12l153 154q13 13 13 29v722q0 16 -13 29l-153 154q-12 12 -29 12h-33z" />
<glyph unicode="&#xd9;" horiz-adv-x="1433" d="M229 313v1053h127v-1044q0 -16 13 -29l153 -154q12 -12 29 -12h332q16 0 28 12l154 154q12 12 12 29v1044h127v-1053q0 -59 -43 -102l-168 -168q-43 -43 -102 -43h-348q-60 0 -103 43l-168 168q-43 43 -43 102zM432 1786h148l313 -313h-148z" />
<glyph unicode="&#xda;" horiz-adv-x="1433" d="M229 313v1053h127v-1044q0 -16 13 -29l153 -154q12 -12 29 -12h332q16 0 28 12l154 154q12 12 12 29v1044h127v-1053q0 -59 -43 -102l-168 -168q-43 -43 -102 -43h-348q-60 0 -103 43l-168 168q-43 43 -43 102zM602 1473l313 313h148l-313 -313h-148z" />
<glyph unicode="&#xdb;" horiz-adv-x="1433" d="M229 313v1053h127v-1044q0 -16 13 -29l153 -154q12 -12 29 -12h332q16 0 28 12l154 154q12 12 12 29v1044h127v-1053q0 -59 -43 -102l-168 -168q-43 -43 -102 -43h-348q-60 0 -103 43l-168 168q-43 43 -43 102zM336 1516l270 270h221l271 -270h-148l-233 233l-234 -233 h-147z" />
<glyph unicode="&#xdc;" horiz-adv-x="1433" d="M229 313v1053h127v-1044q0 -16 13 -29l153 -154q12 -12 29 -12h332q16 0 28 12l154 154q12 12 12 29v1044h127v-1053q0 -59 -43 -102l-168 -168q-43 -43 -102 -43h-348q-60 0 -103 43l-168 168q-43 43 -43 102zM414 1556v173h172v-173h-172zM850 1556v173h172v-173h-172z " />
<glyph unicode="&#xdd;" horiz-adv-x="1222" d="M57 1366h150l407 -629l406 629h145l-489 -762v-604h-127v604zM528 1473l314 313h147l-313 -313h-148z" />
<glyph unicode="&#xde;" horiz-adv-x="1347" d="M258 0v1366h127v-307h600q57 0 98 -41l107 -107q43 -43 43 -102v-254q0 -59 -43 -102l-105 -105q-41 -41 -100 -41h-600v-307h-127zM385 434h590q17 0 29 12l90 91q12 12 12 28v238q0 16 -12 28l-88 89q-12 12 -29 12h-592v-498z" />
<glyph unicode="&#xdf;" horiz-adv-x="1155" d="M172 -389v1515q0 60 39 99l96 96q45 45 105 45h360q60 0 105 -45l96 -96q39 -39 39 -99v-229q0 -61 -43 -104l-70 -70l72 -72q41 -41 41 -98v-317q0 -60 -43 -103l-90 -90q-43 -43 -103 -43h-370v115h358q17 0 29 12l90 90q12 12 12 29v305q0 17 -12 29l-74 73 q-13 13 -29 13h-317v114h315q18 0 29 11l76 75q12 12 12 31v227q0 19 -10 29l-86 86q-12 12 -31 12h-352q-19 0 -31 -12l-86 -86q-10 -10 -10 -29v-1513h-117z" />
<glyph unicode="&#xe0;" horiz-adv-x="1173" d="M115 236v165q0 60 43 103l86 86q43 43 102 43h496v106q0 16 -13 29l-79 80q-12 12 -29 12h-369q-16 0 -28 -12l-88 -88l-80 82l92 92q41 41 100 41h377q59 0 100 -41l90 -90q43 -43 43 -105v-561q0 -15 13 -28l69 -70l-79 -80l-119 119l-78 -78q-41 -41 -100 -41h-316 q-59 0 -100 41l-90 90q-43 43 -43 105zM231 236q0 -16 13 -29l80 -80q12 -12 28 -12h307q17 0 29 12l141 141q13 13 13 29v221h-490q-16 0 -28 -12l-80 -80q-13 -13 -13 -29v-161zM303 1366h148l313 -313h-148z" />
<glyph unicode="&#xe1;" horiz-adv-x="1173" d="M115 236v165q0 60 43 103l86 86q43 43 102 43h496v106q0 16 -13 29l-79 80q-12 12 -29 12h-369q-16 0 -28 -12l-88 -88l-80 82l92 92q41 41 100 41h377q59 0 100 -41l90 -90q43 -43 43 -105v-561q0 -15 13 -28l69 -70l-79 -80l-119 119l-78 -78q-41 -41 -100 -41h-316 q-59 0 -100 41l-90 90q-43 43 -43 105zM231 236q0 -16 13 -29l80 -80q12 -12 28 -12h307q17 0 29 12l141 141q13 13 13 29v221h-490q-16 0 -28 -12l-80 -80q-13 -13 -13 -29v-161zM381 1053l313 313h148l-314 -313h-147z" />
<glyph unicode="&#xe2;" horiz-adv-x="1173" d="M115 236v165q0 60 43 103l86 86q43 43 102 43h496v106q0 16 -13 29l-79 80q-12 12 -29 12h-369q-16 0 -28 -12l-88 -88l-80 82l92 92q41 41 100 41h377q59 0 100 -41l90 -90q43 -43 43 -105v-561q0 -15 13 -28l69 -70l-79 -80l-119 119l-78 -78q-41 -41 -100 -41h-316 q-59 0 -100 41l-90 90q-43 43 -43 105zM188 1096l271 270h221l270 -270h-147l-234 233l-233 -233h-148zM231 236q0 -16 13 -29l80 -80q12 -12 28 -12h307q17 0 29 12l141 141q13 13 13 29v221h-490q-16 0 -28 -12l-80 -80q-13 -13 -13 -29v-161z" />
<glyph unicode="&#xe3;" horiz-adv-x="1173" d="M115 236v165q0 60 43 103l86 86q43 43 102 43h496v106q0 16 -13 29l-79 80q-12 12 -29 12h-369q-16 0 -28 -12l-88 -88l-80 82l92 92q41 41 100 41h377q59 0 100 -41l90 -90q43 -43 43 -105v-561q0 -15 13 -28l69 -70l-79 -80l-119 119l-78 -78q-41 -41 -100 -41h-316 q-59 0 -100 41l-90 90q-43 43 -43 105zM176 1253l176 115q39 25 76 25q40 0 82 -27l170 -115q20 -14 45 0l186 117l56 -90l-181 -117q-38 -24 -75 -24q-41 0 -82 26l-180 119q-23 16 -46 0l-167 -113zM231 236q0 -16 13 -29l80 -80q12 -12 28 -12h307q17 0 29 12l141 141 q13 13 13 29v221h-490q-16 0 -28 -12l-80 -80q-13 -13 -13 -29v-161z" />
<glyph unicode="&#xe4;" horiz-adv-x="1173" d="M115 236v165q0 60 43 103l86 86q43 43 102 43h496v106q0 16 -13 29l-79 80q-12 12 -29 12h-369q-16 0 -28 -12l-88 -88l-80 82l92 92q41 41 100 41h377q59 0 100 -41l90 -90q43 -43 43 -105v-561q0 -15 13 -28l69 -70l-79 -80l-119 119l-78 -78q-41 -41 -100 -41h-316 q-59 0 -100 41l-90 90q-43 43 -43 105zM231 236q0 -16 13 -29l80 -80q12 -12 28 -12h307q17 0 29 12l141 141q13 13 13 29v221h-490q-16 0 -28 -12l-80 -80q-13 -13 -13 -29v-161zM258 1194v172h172v-172h-172zM694 1194v172h172v-172h-172z" />
<glyph unicode="&#xe5;" horiz-adv-x="1173" d="M115 236v165q0 60 43 103l86 86q43 43 102 43h496v106q0 16 -13 29l-79 80q-12 12 -29 12h-369q-16 0 -28 -12l-88 -88l-80 82l92 92q17 17 35.5 27t28.5 11l10 1q-5 16 -5 28v173q0 57 39.5 96t96.5 39h163q57 0 97.5 -39t40.5 -96v-173l-4 -28q36 0 75 -39l90 -90 q43 -43 43 -105v-561q0 -15 13 -28l69 -70l-79 -80l-119 119l-78 -78q-41 -41 -100 -41h-316q-59 0 -100 41l-90 90q-43 43 -43 105zM231 236q0 -16 13 -29l80 -80q12 -12 28 -12h307q17 0 29 12l141 141q13 13 13 29v221h-490q-16 0 -28 -12l-80 -80q-13 -13 -13 -29v-161z M426 1014q0 -15 12.5 -27t26.5 -12h141q14 0 26.5 12t12.5 27v147q0 15 -12 27t-27 12h-141q-15 0 -27 -12t-12 -27v-147z" />
<glyph unicode="&#xe6;" horiz-adv-x="1576" d="M115 236v118q0 60 43 103l86 86q43 43 102 43h395v153q0 17 -12 29l-80 80q-12 12 -28 12h-269q-16 0 -28 -12l-88 -88l-80 82l92 92q41 41 100 41h279q59 0 100 -41l74 -74l73 74q41 41 101 41h225q59 0 100 -41l91 -90q43 -43 43 -105v-270h-576v-233q0 -17 12 -29 l80 -80q12 -12 29 -12h217q17 0 29 12l121 123l81 -82l-127 -127q-41 -41 -100 -41h-225q-62 0 -105 43l-69 70l-72 -72q-41 -41 -100 -41h-281q-59 0 -100 41l-90 90q-43 43 -43 105zM231 236q0 -16 13 -29l80 -80q12 -12 28 -12h269q16 0 28 12l80 80q12 12 12 29v235 h-389q-16 0 -28 -12l-80 -80q-13 -13 -13 -29v-114zM858 586h459v153q0 17 -12 29l-80 80q-12 12 -29 12h-217q-17 0 -29 -12l-80 -80q-12 -12 -12 -29v-153z" />
<glyph unicode="&#xe7;" horiz-adv-x="1067" d="M143 236v503q0 62 43 105l90 90q41 41 101 41h377q59 0 100 -41l127 -127l-82 -82l-121 123q-12 12 -28 12h-369q-17 0 -29 -12l-80 -80q-12 -12 -12 -29v-503q0 -17 12 -29l80 -80q12 -12 29 -12h369q16 0 28 12l121 123l82 -82l-127 -127q-41 -41 -100 -41h-174 l180 -180l-205 -205l-76 76l129 129l-131 131l49 49h-149q-60 0 -101 41l-90 90q-43 43 -43 105z" />
<glyph unicode="&#xe8;" horiz-adv-x="1130" d="M143 236v503q0 62 43 105l90 90q41 41 101 41h377q59 0 100 -41l90 -90q43 -43 43 -105v-270h-727v-233q0 -17 12 -29l80 -80q12 -12 29 -12h369q16 0 28 12l121 123l82 -82l-127 -127q-41 -41 -100 -41h-377q-60 0 -101 41l-90 90q-43 43 -43 105zM260 586h610v153 q0 17 -12 29l-80 80q-12 12 -28 12h-369q-17 0 -29 -12l-80 -80q-12 -12 -12 -29v-153zM287 1366h147l314 -313h-148z" />
<glyph unicode="&#xe9;" horiz-adv-x="1130" d="M143 236v503q0 62 43 105l90 90q41 41 101 41h377q59 0 100 -41l90 -90q43 -43 43 -105v-270h-727v-233q0 -17 12 -29l80 -80q12 -12 29 -12h369q16 0 28 12l121 123l82 -82l-127 -127q-41 -41 -100 -41h-377q-60 0 -101 41l-90 90q-43 43 -43 105zM260 586h610v153 q0 17 -12 29l-80 80q-12 12 -28 12h-369q-17 0 -29 -12l-80 -80q-12 -12 -12 -29v-153zM410 1053l313 313h147l-313 -313h-147z" />
<glyph unicode="&#xea;" horiz-adv-x="1130" d="M143 236v503q0 62 43 105l90 90q41 41 101 41h377q59 0 100 -41l90 -90q43 -43 43 -105v-270h-727v-233q0 -17 12 -29l80 -80q12 -12 29 -12h369q16 0 28 12l121 123l82 -82l-127 -127q-41 -41 -100 -41h-377q-60 0 -101 41l-90 90q-43 43 -43 105zM184 1096l271 270h221 l270 -270h-147l-234 233l-233 -233h-148zM260 586h610v153q0 17 -12 29l-80 80q-12 12 -28 12h-369q-17 0 -29 -12l-80 -80q-12 -12 -12 -29v-153z" />
<glyph unicode="&#xeb;" horiz-adv-x="1130" d="M143 236v503q0 62 43 105l90 90q41 41 101 41h377q59 0 100 -41l90 -90q43 -43 43 -105v-270h-727v-233q0 -17 12 -29l80 -80q12 -12 29 -12h369q16 0 28 12l121 123l82 -82l-127 -127q-41 -41 -100 -41h-377q-60 0 -101 41l-90 90q-43 43 -43 105zM250 1194v172h172 v-172h-172zM260 586h610v153q0 17 -12 29l-80 80q-12 12 -28 12h-369q-17 0 -29 -12l-80 -80q-12 -12 -12 -29v-153zM686 1194v172h172v-172h-172z" />
<glyph unicode="&#xec;" horiz-adv-x="532" d="M-82 1366h148l313 -313h-148zM8 860v115h324v-975h-117v860h-207z" />
<glyph unicode="&#xed;" horiz-adv-x="532" d="M-49 1053l313 313h148l-314 -313h-147zM8 860v115h324v-975h-117v860h-207z" />
<glyph unicode="&#xee;" horiz-adv-x="532" d="M-152 1096l271 270h221l270 -270h-147l-234 233l-233 -233h-148zM8 860v115h324v-975h-117v860h-207z" />
<glyph unicode="&#xef;" horiz-adv-x="532" d="M-76 1194v172h172v-172h-172zM8 860v115h324v-975h-117v860h-207zM360 1194v172h172v-172h-172z" />
<glyph unicode="&#xf0;" horiz-adv-x="1130" d="M143 236v446q0 61 43 104l90 91q41 41 101 41h274l-217 217l-121 -121l-82 82l121 121l-121 120l82 82l121 -121l121 121l82 -82l-121 -120l428 -431q43 -43 43 -104v-442q0 -66 -43 -109l-90 -90q-41 -41 -100 -41h-377q-60 0 -101 41l-90 90q-43 43 -43 105zM260 236 q0 -17 12 -29l80 -80q12 -12 29 -12h369q16 0 28 12l80 80q12 12 12 39v436q0 17 -12 29l-80 80q-12 12 -28 12h-369q-17 0 -29 -12l-80 -80q-12 -12 -12 -29v-446z" />
<glyph unicode="&#xf1;" horiz-adv-x="1193" d="M160 975h119l38 -162l119 119q43 43 103 43h221q59 0 100 -41l90 -90q43 -43 43 -105v-739h-116v739q0 16 -13 29l-80 80q-12 12 -28 12h-217q-19 0 -31 -12l-178 -178q-13 -13 -13 -29v-641h-116v805zM190 1253l177 115q39 25 75 25q40 0 82 -27l170 -115q20 -14 45 0 l187 117l55 -90l-180 -117q-37 -24 -76 -24q-41 0 -82 26l-180 119q-23 16 -45 0l-168 -113z" />
<glyph unicode="&#xf2;" horiz-adv-x="1130" d="M143 236v503q0 62 43 105l90 90q41 41 101 41h377q59 0 100 -41l90 -90q43 -43 43 -105v-499q0 -66 -43 -109l-90 -90q-41 -41 -100 -41h-377q-60 0 -101 41l-90 90q-43 43 -43 105zM260 236q0 -17 12 -29l80 -80q12 -12 29 -12h369q16 0 28 12l80 80q12 12 12 39v493 q0 17 -12 29l-80 80q-12 12 -28 12h-369q-17 0 -29 -12l-80 -80q-12 -12 -12 -29v-503zM270 1366h148l313 -313h-147z" />
<glyph unicode="&#xf3;" horiz-adv-x="1130" d="M143 236v503q0 62 43 105l90 90q41 41 101 41h377q59 0 100 -41l90 -90q43 -43 43 -105v-499q0 -66 -43 -109l-90 -90q-41 -41 -100 -41h-377q-60 0 -101 41l-90 90q-43 43 -43 105zM260 236q0 -17 12 -29l80 -80q12 -12 29 -12h369q16 0 28 12l80 80q12 12 12 39v493 q0 17 -12 29l-80 80q-12 12 -28 12h-369q-17 0 -29 -12l-80 -80q-12 -12 -12 -29v-503zM395 1053l314 313h147l-313 -313h-148z" />
<glyph unicode="&#xf4;" horiz-adv-x="1130" d="M143 236v503q0 62 43 105l90 90q41 41 101 41h377q59 0 100 -41l90 -90q43 -43 43 -105v-499q0 -66 -43 -109l-90 -90q-41 -41 -100 -41h-377q-60 0 -101 41l-90 90q-43 43 -43 105zM184 1096l271 270h221l270 -270h-147l-234 233l-233 -233h-148zM260 236q0 -17 12 -29 l80 -80q12 -12 29 -12h369q16 0 28 12l80 80q12 12 12 39v493q0 17 -12 29l-80 80q-12 12 -28 12h-369q-17 0 -29 -12l-80 -80q-12 -12 -12 -29v-503z" />
<glyph unicode="&#xf5;" horiz-adv-x="1130" d="M143 236v503q0 62 43 105l90 90q41 41 101 41h377q59 0 100 -41l90 -90q43 -43 43 -105v-499q0 -66 -43 -109l-90 -90q-41 -41 -100 -41h-377q-60 0 -101 41l-90 90q-43 43 -43 105zM170 1253l176 115q39 25 76 25q40 0 82 -27l170 -115q20 -14 45 0l186 117l56 -90 l-181 -117q-38 -24 -75 -24q-41 0 -82 26l-181 119q-22 16 -45 0l-168 -113zM260 236q0 -17 12 -29l80 -80q12 -12 29 -12h369q16 0 28 12l80 80q12 12 12 39v493q0 17 -12 29l-80 80q-12 12 -28 12h-369q-17 0 -29 -12l-80 -80q-12 -12 -12 -29v-503z" />
<glyph unicode="&#xf6;" horiz-adv-x="1130" d="M143 236v503q0 62 43 105l90 90q41 41 101 41h377q59 0 100 -41l90 -90q43 -43 43 -105v-499q0 -66 -43 -109l-90 -90q-41 -41 -100 -41h-377q-60 0 -101 41l-90 90q-43 43 -43 105zM260 236q0 -17 12 -29l80 -80q12 -12 29 -12h369q16 0 28 12l80 80q12 12 12 39v493 q0 17 -12 29l-80 80q-12 12 -28 12h-369q-17 0 -29 -12l-80 -80q-12 -12 -12 -29v-503zM260 1194v172h172v-172h-172zM696 1194v172h172v-172h-172z" />
<glyph unicode="&#xf7;" d="M133 434v103h975v-103h-975zM535 0v172h172v-172h-172zM535 805v172h172v-172h-172z" />
<glyph unicode="&#xf8;" horiz-adv-x="1130" d="M143 236v503q0 62 43 105l90 90q41 41 101 41h291l63 196l98 -34l-53 -164q41 -2 78 -39l90 -90q43 -43 43 -105v-499q0 -66 -43 -109l-90 -90q-41 -41 -100 -41h-293l-62 -193l-98 33l51 162q-37 0 -76 39l-90 90q-43 43 -43 105zM260 236q0 -17 12 -29l80 -80 q12 -12 29 -12h8l242 745h-250q-17 0 -29 -12l-80 -80q-12 -12 -12 -29v-503zM500 115h250q16 0 28 12l80 80q12 12 12 39v493q0 17 -12 29l-80 80q-12 12 -28 12h-11z" />
<glyph unicode="&#xf9;" horiz-adv-x="1193" d="M201 236v739h116v-739q0 -16 13 -29l80 -80q12 -12 28 -12h217q19 0 31 12l178 178q13 13 13 29v641h116v-805l41 -170h-119l-38 162l-119 -119q-43 -43 -103 -43h-221q-59 0 -100 41l-90 90q-43 43 -43 105zM324 1366h147l313 -313h-147z" />
<glyph unicode="&#xfa;" horiz-adv-x="1193" d="M201 236v739h116v-739q0 -16 13 -29l80 -80q12 -12 28 -12h217q19 0 31 12l178 178q13 13 13 29v641h116v-805l41 -170h-119l-38 162l-119 -119q-43 -43 -103 -43h-221q-59 0 -100 41l-90 90q-43 43 -43 105zM428 1053l313 313h148l-314 -313h-147z" />
<glyph unicode="&#xfb;" horiz-adv-x="1193" d="M201 236v739h116v-739q0 -16 13 -29l80 -80q12 -12 28 -12h217q19 0 31 12l178 178q13 13 13 29v641h116v-805l41 -170h-119l-38 162l-119 -119q-43 -43 -103 -43h-221q-59 0 -100 41l-90 90q-43 43 -43 105zM217 1096l270 270h222l270 -270h-148l-233 233l-233 -233 h-148z" />
<glyph unicode="&#xfc;" horiz-adv-x="1193" d="M201 236v739h116v-739q0 -16 13 -29l80 -80q12 -12 28 -12h217q19 0 31 12l178 178q13 13 13 29v641h116v-805l41 -170h-119l-38 162l-119 -119q-43 -43 -103 -43h-221q-59 0 -100 41l-90 90q-43 43 -43 105zM293 1194v172h172v-172h-172zM729 1194v172h172v-172h-172z " />
<glyph unicode="&#xfd;" horiz-adv-x="966" d="M57 975h125l295 -807l297 807h121l-502 -1364h-123l144 391zM391 1053l314 313h147l-313 -313h-148z" />
<glyph unicode="&#xfe;" horiz-adv-x="1187" d="M201 -391v1757h116v-553l119 119q43 43 103 43h272q59 0 100 -41l90 -90q43 -43 43 -105v-499q0 -66 -43 -109l-90 -90q-41 -41 -100 -41h-272q-60 0 -103 43l-119 119v-553h-116zM317 334q0 -16 13 -29l178 -178q12 -12 31 -12h268q17 0 29 12l79 80q13 13 13 39v493 q0 16 -13 29l-79 80q-12 12 -29 12h-268q-19 0 -31 -12l-178 -178q-13 -13 -13 -29v-307z" />
<glyph unicode="&#xff;" horiz-adv-x="966" d="M57 975h125l295 -807l297 807h121l-502 -1364h-123l144 391zM172 1194v172h172v-172h-172zM608 1194v172h172v-172h-172z" />
<glyph unicode="&#x152;" horiz-adv-x="1767" d="M201 313v740q0 59 43 102l168 168q43 43 102 43h1053v-127h-572v-491h572v-127h-572v-494h572v-127h-1053q-59 0 -102 43l-168 168q-43 43 -43 102zM328 322q0 -17 12 -29l154 -154q12 -12 28 -12h346v1112h-346q-16 0 -28 -12l-154 -154q-12 -12 -12 -29v-722z" />
<glyph unicode="&#x153;" horiz-adv-x="1605" d="M143 236v503q0 62 43 105l90 90q41 41 101 41h278q60 0 103 -43l71 -72l74 74q41 41 101 41h225q59 0 100 -41l90 -90q43 -43 43 -105v-270h-575v-233q0 -17 12 -29l80 -80q12 -12 29 -12h217q16 0 28 12l121 123l82 -82l-127 -127q-41 -41 -100 -41h-225q-62 0 -105 43 l-70 70l-71 -72q-41 -41 -101 -41h-280q-60 0 -101 41l-90 90q-43 43 -43 105zM260 236q0 -17 12 -29l80 -80q12 -12 29 -12h272q17 0 29 12l80 80q12 12 12 29v503q0 17 -12 29l-80 80q-12 12 -29 12h-272q-17 0 -29 -12l-80 -80q-12 -12 -12 -29v-503zM887 586h459v153 q0 16 -13 29l-80 80q-12 12 -28 12h-217q-17 0 -29 -12l-80 -80q-12 -12 -12 -29v-153z" />
<glyph unicode="&#x178;" horiz-adv-x="1222" d="M57 1366h150l407 -629l406 629h145l-489 -762v-604h-127v604zM307 1556v173h172v-173h-172zM743 1556v173h172v-173h-172z" />
<glyph unicode="&#x2c6;" horiz-adv-x="952" d="M96 1096l271 270h221l270 -270h-147l-234 233l-233 -233h-148z" />
<glyph unicode="&#x2dc;" horiz-adv-x="952" d="M82 1253l176 115q39 25 76 25q40 0 82 -27l170 -115q20 -14 45 0l186 117l55 -90l-180 -117q-38 -24 -76 -24q-40 0 -81 26l-181 119q-22 16 -45 0l-168 -113z" />
<glyph unicode="&#x2000;" horiz-adv-x="893" />
<glyph unicode="&#x2001;" horiz-adv-x="1786" />
<glyph unicode="&#x2002;" horiz-adv-x="893" />
<glyph unicode="&#x2003;" horiz-adv-x="1786" />
<glyph unicode="&#x2004;" horiz-adv-x="595" />
<glyph unicode="&#x2005;" horiz-adv-x="446" />
<glyph unicode="&#x2006;" horiz-adv-x="297" />
<glyph unicode="&#x2007;" horiz-adv-x="297" />
<glyph unicode="&#x2008;" horiz-adv-x="223" />
<glyph unicode="&#x2009;" horiz-adv-x="357" />
<glyph unicode="&#x200a;" horiz-adv-x="99" />
<glyph unicode="&#x2010;" horiz-adv-x="1032" d="M229 436v103h574v-103h-574z" />
<glyph unicode="&#x2011;" horiz-adv-x="1032" d="M229 436v103h574v-103h-574z" />
<glyph unicode="&#x2012;" horiz-adv-x="1032" d="M229 436v103h574v-103h-574z" />
<glyph unicode="&#x2013;" d="M109 436v103h1024v-103h-1024z" />
<glyph unicode="&#x2014;" horiz-adv-x="2048" d="M205 539h1638v-103h-1636z" />
<glyph unicode="&#x2018;" horiz-adv-x="620" d="M248 893v344q0 61 41 102l73 74l89 -88l-62 -61q-14 -14 -14 -29v-342h-127z" />
<glyph unicode="&#x2019;" horiz-adv-x="620" d="M170 934l61 61q15 15 15 29v342h127v-344q0 -61 -41 -102l-74 -74z" />
<glyph unicode="&#x201a;" horiz-adv-x="620" d="M170 -260l61 61q15 15 15 29v342h127v-344q0 -61 -41 -102l-74 -74z" />
<glyph unicode="&#x201c;" horiz-adv-x="1095" d="M248 893v344q0 61 41 102l73 74l89 -88l-62 -61q-14 -14 -14 -29v-342h-127zM723 893v344q0 61 41 102l74 74l88 -88l-62 -61q-14 -14 -14 -29v-342h-127z" />
<glyph unicode="&#x201d;" horiz-adv-x="1095" d="M170 934l61 61q15 15 15 29v342h127v-344q0 -61 -41 -102l-74 -74zM645 934l62 61q14 14 14 29v342h127v-344q0 -61 -41 -102l-74 -74z" />
<glyph unicode="&#x201e;" horiz-adv-x="1095" d="M170 -260l61 61q15 15 15 29v342h127v-344q0 -61 -41 -102l-74 -74zM645 -260l62 61q14 14 14 29v342h127v-344q0 -61 -41 -102l-74 -74z" />
<glyph unicode="&#x2022;" horiz-adv-x="1024" d="M369 541v286h286v-286h-286z" />
<glyph unicode="&#x2026;" horiz-adv-x="2048" d="M256 0v172h172v-172h-172zM938 0v172h172v-172h-172zM1620 0v172h172v-172h-172z" />
<glyph unicode="&#x202f;" horiz-adv-x="357" />
<glyph unicode="&#x2039;" horiz-adv-x="800" d="M201 487q0 60 41 101l278 278l80 -80l-270 -270q-12 -12 -12 -28.5t12 -28.5l270 -271l-80 -79l-278 278q-41 41 -41 100z" />
<glyph unicode="&#x203a;" horiz-adv-x="800" d="M201 188l270 271q12 12 12 28.5t-12 28.5l-270 270l80 80l278 -278q41 -41 41 -101q0 -59 -41 -100l-278 -278z" />
<glyph unicode="&#x205f;" horiz-adv-x="446" />
<glyph unicode="&#x2122;" horiz-adv-x="1927" d="M29 1264v102h671v-102h-284v-785h-103v785h-284zM807 479v887h180l250 -784l252 784h180v-887h-102v805l-262 -805h-134l-262 805v-805h-102z" />
<glyph unicode="&#x25fc;" horiz-adv-x="972" d="M0 0v973h973v-973h-973z" />
<glyph unicode="&#xfb01;" horiz-adv-x="1169" d="M72 860v115h139v151q0 66 43 109l90 90q41 41 100 41h201v-115h-196q-17 0 -29 -12l-80 -80q-12 -12 -12 -39v-145h641v-975h-117v860h-524v-860h-117v860h-139zM821 1194v172h172v-172h-172z" />
<glyph unicode="&#xfb02;" horiz-adv-x="1169" d="M72 860v115h139v151q0 66 43 109l90 90q41 41 100 41h525v-1366h-117v1251h-403q-17 0 -29 -12l-80 -80q-12 -12 -12 -39v-145h317v-115h-317v-860h-117v860h-139z" />
</font>
</defs>
</svg>
