<svg id="Calque_1" data-name="Calque 1" xmlns="http://www.w3.org/2000/svg" viewBox="0 0 24 24"><defs><style>.cls-1{fill:none;}</style></defs><title>baseline-note_add-24px</title><path class="cls-1" d="M0,0H24V24H0Z" transform="translate(0 0)"/><path d="M14,2H6A2,2,0,0,0,4,4V20a2,2,0,0,0,2,2H18a2,2,0,0,0,2-2V8ZM13,9V3.5L18.5,9ZM9.08,16.81a1.43,1.43,0,0,0,.46-.07,1.22,1.22,0,0,0,.39-.21.83.83,0,0,0,.27-.32.76.76,0,0,0,.1-.39h1.21a1.61,1.61,0,0,1-.19.78,2,2,0,0,1-.53.64,2.68,2.68,0,0,1-.78.44,2.82,2.82,0,0,1-.92.16,2.87,2.87,0,0,1-1.17-.23A2.44,2.44,0,0,1,7.08,17a2.8,2.8,0,0,1-.51-.93,3.75,3.75,0,0,1-.17-1.12v-.2a3.75,3.75,0,0,1,.17-1.12,2.8,2.8,0,0,1,.51-.93,2.44,2.44,0,0,1,.84-.63,2.84,2.84,0,0,1,1.17-.23,2.78,2.78,0,0,1,1,.16,2.44,2.44,0,0,1,.77.45,1.8,1.8,0,0,1,.5.69,2.13,2.13,0,0,1,.18.88H10.3a1.27,1.27,0,0,0-.08-.44,1.18,1.18,0,0,0-.26-.37A1.28,1.28,0,0,0,9.57,13a1.13,1.13,0,0,0-.49-.1,1.22,1.22,0,0,0-1.1.6,1.79,1.79,0,0,0-.23.6,3.82,3.82,0,0,0-.07.68v.2a4,4,0,0,0,.07.69,1.87,1.87,0,0,0,.23.6,1.19,1.19,0,0,0,1.1.59Zm5.6-.7.09.42.1-.42,1.4-4.18H17.6l-2.28,5.79h-1.1l-2.29-5.79h1.32Zm3.23,4.09H6.09v-1H17.91Z" transform="translate(0 0)"/></svg>